<svg id="Layer_1" data-name="Layer 1" xmlns="http://www.w3.org/2000/svg" viewBox="0 0 775.76 174.11"><defs><style>.cls-1{fill:#27aae1;}.cls-2{fill:#fff;}</style></defs><rect class="cls-1" x="181.11" y="46.51" width="594.65" height="116.09" rx="9.23"/><path class="cls-1" d="M173.79,50.92h0l-60.5-30.39a21.05,21.05,0,0,0-18.82,0L34,50.92A21.1,21.1,0,0,0,22.44,70.15C23,97.42,30.92,163.64,91,189.74a32.45,32.45,0,0,0,25.78,0c60.07-26.1,68-92.33,68.55-119.59A21.05,21.05,0,0,0,173.79,50.92ZM146,111.83a95.71,95.71,0,0,1-23,44.27,92.4,92.4,0,0,1-17.56,15,114.73,114.73,0,0,1-25.66-23.56C69.74,135,63.26,121.13,61,107.38,58.86,93.89,61,81.6,67.2,71.83a42.26,42.26,0,0,1,9.49-10.51c9.09-7.19,19.15-11,29.11-11h.29c9.93.1,19.41,4,27.4,11.3a40.42,40.42,0,0,1,7.28,8.84C147.37,81.4,149.22,96.09,146,111.83Zm-33.4,68.26h0a21.75,21.75,0,0,1-4.53,1.4l.24-.15a102.52,102.52,0,0,0,19.86-15.89v.1l2.35-2.57a106,106,0,0,0,25.42-49.07c3.77-18.26,1.46-35.54-6.49-48.66a50.1,50.1,0,0,0-9.11-11.1c-9.84-9-21.65-13.85-34.14-14S81.31,44.64,70.37,53.35a52.5,52.5,0,0,0-11.76,13C51.06,78.24,48.43,93,51,109c2.48,15.43,9.67,31,20.81,45a124.89,124.89,0,0,0,30.84,27.51,5.5,5.5,0,0,0,.8.41,21.89,21.89,0,0,1-8.28-1.79C40.69,156.42,33.51,95.16,33,69.93a10.53,10.53,0,0,1,5.76-9.6L99.2,29.93a10.46,10.46,0,0,1,9.38,0l60.49,30.39a10.52,10.52,0,0,1,5.76,9.6C174.27,95.16,167.09,156.43,112.59,180.09Z" transform="translate(-22.43 -18.31)"/><circle class="cls-1" cx="81.45" cy="76.4" r="34.67"/><circle class="cls-2" cx="81.55" cy="76.4" r="2.91"/><rect class="cls-2" x="80.67" y="57.57" width="1.76" height="18.83" rx="0.35"/><rect class="cls-2" x="112.52" y="85.29" width="1.76" height="18.83" rx="0.35" transform="translate(185.68 -37) rotate(90)"/><path class="cls-2" d="M276.09,98.65v30.67a23.14,23.14,0,0,1-1.83,9.09,23.23,23.23,0,0,1-12.45,12.45,23.49,23.49,0,0,1-18.18,0,23.23,23.23,0,0,1-12.45-12.45,23.49,23.49,0,0,1,0-18.18,23.23,23.23,0,0,1,12.45-12.45,23.28,23.28,0,0,1,23.69,3.29V98.65Zm-23.37,45.28a14.64,14.64,0,0,0,5.69-1.14,15.16,15.16,0,0,0,4.64-3.14,14.77,14.77,0,0,0,3.1-4.63,14.45,14.45,0,0,0,0-11.39,14.7,14.7,0,0,0-3.1-4.64,15.16,15.16,0,0,0-4.64-3.14,14.54,14.54,0,0,0-16,3.14,15.16,15.16,0,0,0-3.14,4.64,14.8,14.8,0,0,0,0,11.39,15.24,15.24,0,0,0,3.14,4.63,14.66,14.66,0,0,0,4.63,3.14A14.5,14.5,0,0,0,252.72,143.93Z" transform="translate(-22.43 -18.31)"/><path class="cls-2" d="M303.07,102.27a5.12,5.12,0,0,1-8.73-3.62,5.11,5.11,0,1,1,10.22,0A5,5,0,0,1,303.07,102.27Zm-8,8.07h8.76v40.89h-8.76Z" transform="translate(-22.43 -18.31)"/><path class="cls-2" d="M344.73,106a23.21,23.21,0,0,1,9.09,1.83,23.23,23.23,0,0,1,12.45,12.45,23.38,23.38,0,0,1,1.82,9.09v21.91A22.79,22.79,0,0,1,365,162.91l-7.59-4.38a14.2,14.2,0,0,0,2-7.3v-3.65a3.17,3.17,0,0,0-.4.29,22.8,22.8,0,0,1-11.87,4.71c-.78.07-1.55.11-2.33.11a23.41,23.41,0,0,1-23.37-23.37,23.38,23.38,0,0,1,1.82-9.09,23.3,23.3,0,0,1,12.46-12.45A23.14,23.14,0,0,1,344.73,106Zm14.2,26.73a14,14,0,0,0,.4-3.36,14.81,14.81,0,0,0-1.13-5.69,15.34,15.34,0,0,0-3.14-4.64,14.73,14.73,0,0,0-16-3.14,14.8,14.8,0,0,0-7.78,7.78,14.81,14.81,0,0,0-1.13,5.69,14.57,14.57,0,0,0,.4,3.36,14.59,14.59,0,0,0,28.41,0Z" transform="translate(-22.43 -18.31)"/><path class="cls-2" d="M395.08,102.27a5.12,5.12,0,0,1-8.73-3.62,5.11,5.11,0,1,1,10.22,0A5,5,0,0,1,395.08,102.27Zm-8,8.07h8.76v40.89h-8.76Z" transform="translate(-22.43 -18.31)"/><path class="cls-2" d="M423.59,98.65v12l3.54-2,4.38,7.6-7.92,4.56v30.49h-8.76V125.82l-3.54,2-4.39-7.59,7.93-4.57v-17Z" transform="translate(-22.43 -18.31)"/><path class="cls-2" d="M464.48,106a23.14,23.14,0,0,1,9.09,1.83A23.23,23.23,0,0,1,486,120.23a23.21,23.21,0,0,1,1.83,9.09v21.91h-8.76v-3.65a23.69,23.69,0,0,1-6.72,3.76,23.6,23.6,0,0,1-17-.48,23.23,23.23,0,0,1-12.45-12.45,23.61,23.61,0,0,1,0-18.18,23.23,23.23,0,0,1,12.45-12.45A23.21,23.21,0,0,1,464.48,106Zm0,38a14.72,14.72,0,0,0,5.7-1.14,15.28,15.28,0,0,0,4.64-3.14,14.94,14.94,0,0,0,3.1-4.63,14.7,14.7,0,0,0-3.1-16,15.28,15.28,0,0,0-4.64-3.14,14.71,14.71,0,0,0-5.7-1.13A14.39,14.39,0,0,0,454.15,119,14.73,14.73,0,0,0,451,135a15.42,15.42,0,0,0,3.14,4.63,14.45,14.45,0,0,0,10.33,4.28Z" transform="translate(-22.43 -18.31)"/><path class="cls-2" d="M506.84,98.65h8.76v52.58h-8.76Z" transform="translate(-22.43 -18.31)"/><path class="cls-2" d="M591.54,106a23.14,23.14,0,0,1,9.09,1.83,23.23,23.23,0,0,1,12.45,12.45,23.21,23.21,0,0,1,1.83,9.09v21.91h-8.76v-3.65a23.69,23.69,0,0,1-6.72,3.76,23.6,23.6,0,0,1-17-.48A23.23,23.23,0,0,1,570,138.41a23.61,23.61,0,0,1,0-18.18,23.23,23.23,0,0,1,12.45-12.45A23.21,23.21,0,0,1,591.54,106Zm0,38a14.72,14.72,0,0,0,5.7-1.14,15.12,15.12,0,0,0,4.63-3.14A14.8,14.8,0,0,0,605,135a14.45,14.45,0,0,0,0-11.39,14.18,14.18,0,0,0-3.11-4.64,15.12,15.12,0,0,0-4.63-3.14,14.71,14.71,0,0,0-5.7-1.13,14.53,14.53,0,0,0-14.6,14.6,14.71,14.71,0,0,0,1.13,5.7,15.24,15.24,0,0,0,3.14,4.63,14.45,14.45,0,0,0,10.33,4.28Z" transform="translate(-22.43 -18.31)"/><path class="cls-2" d="M633.9,98.65h8.76v52.58H633.9Z" transform="translate(-22.43 -18.31)"/><path class="cls-2" d="M669.64,102.27a5.11,5.11,0,1,1,1.5-3.62A4.95,4.95,0,0,1,669.64,102.27Zm-8,8.07h8.77v40.89h-8.77Z" transform="translate(-22.43 -18.31)"/><path class="cls-2" d="M712.76,106a23.21,23.21,0,0,1,9.09,1.83,23.23,23.23,0,0,1,12.45,12.45,23.49,23.49,0,0,1,0,18.18,23.23,23.23,0,0,1-12.45,12.45,23.49,23.49,0,0,1-18.18,0,23.23,23.23,0,0,1-12.45-12.45,23.14,23.14,0,0,1-1.83-9.09V98.65h8.76v12.42A23.09,23.09,0,0,1,712.76,106Zm0,8.77A14.34,14.34,0,0,0,702.43,119a15.16,15.16,0,0,0-3.14,4.64,14.8,14.8,0,0,0,0,11.39,15.24,15.24,0,0,0,3.14,4.63,14.68,14.68,0,0,0,16,3.14,15.24,15.24,0,0,0,4.63-3.14A14.8,14.8,0,0,0,726.2,135a14.56,14.56,0,0,0,0-11.39,14.73,14.73,0,0,0-3.11-4.64,15.24,15.24,0,0,0-4.63-3.14A14.71,14.71,0,0,0,712.76,114.72Z" transform="translate(-22.43 -18.31)"/><path class="cls-2" d="M761.65,102.27a5.12,5.12,0,0,1-8.73-3.62,5.11,5.11,0,1,1,8.73,3.62Zm-8,8.07h8.76v40.89h-8.76Z" transform="translate(-22.43 -18.31)"/></svg>