<?xml version="1.0" encoding="utf-8"?>
<!-- Generator: Adobe Illustrator 25.0.1, SVG Export Plug-In . SVG Version: 6.00 Build 0)  -->
<svg version="1.1" id="Layer_1" xmlns="http://www.w3.org/2000/svg" xmlns:xlink="http://www.w3.org/1999/xlink" x="0px" y="0px"
	 viewBox="0 0 608.4 541.8" style="enable-background:new 0 0 608.4 541.8;" xml:space="preserve">
<style type="text/css">
	.st0{fill:#27AAE1;}
	.st1{fill:#FFFFFF;}
</style>
<g>
	<path class="st0" d="M527.79,489.5H92.18c-1.1,0-2-0.9-2-2v-90.96c0-1.1,0.9-2,2-2h435.61c1.1,0,2,0.9,2,2v90.96
		C529.79,488.6,528.89,489.5,527.79,489.5z"/>
	<g>
		<path class="st1" d="M140.55,418.88c3.3,0,6.45,0.64,9.47,1.9c2.92,1.24,5.51,2.98,7.76,5.21c2.23,2.26,3.97,4.85,5.21,7.76
			c1.27,3.02,1.9,6.18,1.9,9.47c0,3.3-0.64,6.46-1.9,9.48c-1.24,2.91-2.98,5.51-5.21,7.76c-2.26,2.23-4.85,3.97-7.76,5.21
			c-3.02,1.27-6.18,1.9-9.47,1.9c-3.58,0-6.98-0.75-10.2-2.25c-3.09-1.42-5.78-3.43-8.07-6.01v15.87h-6.09v-31.97
			c0-3.29,0.63-6.45,1.9-9.47c1.24-2.91,2.98-5.51,5.21-7.76c2.26-2.23,4.85-3.97,7.76-5.21
			C134.09,419.52,137.25,418.88,140.55,418.88z M140.55,461.5c2.48,0,4.86-0.48,7.12-1.45c2.18-0.91,4.11-2.22,5.78-3.92
			c1.7-1.67,3.01-3.6,3.92-5.78c0.96-2.26,1.44-4.63,1.44-7.12c0-2.48-0.48-4.85-1.44-7.12c-0.91-2.18-2.22-4.11-3.92-5.78
			c-1.68-1.7-3.6-3.01-5.78-3.92c-2.26-0.96-4.63-1.45-7.12-1.45c-2.49,0-4.86,0.49-7.12,1.45c-2.18,0.91-4.11,2.22-5.78,3.92
			c-1.7,1.68-3.01,3.6-3.92,5.78c-0.97,2.26-1.45,4.63-1.45,7.12c0,2.49,0.48,4.86,1.45,7.12c0.91,2.18,2.22,4.11,3.92,5.78
			c1.67,1.7,3.6,3.01,5.78,3.92C135.69,461.02,138.06,461.5,140.55,461.5z"/>
		<path class="st1" d="M179.27,420.4h6.09v22.83c0,2.49,0.48,4.86,1.45,7.12c0.91,2.18,2.22,4.11,3.92,5.78
			c1.67,1.7,3.6,3.01,5.78,3.92c2.26,0.97,4.63,1.45,7.12,1.45c2.48,0,4.86-0.48,7.12-1.45c2.18-0.91,4.11-2.22,5.78-3.92
			c1.7-1.67,3.01-3.6,3.92-5.78c0.96-2.26,1.44-4.63,1.44-7.12V420.4h6.09v22.83c0,3.3-0.64,6.46-1.9,9.48
			c-1.24,2.91-2.98,5.51-5.21,7.76c-2.26,2.23-4.85,3.97-7.76,5.21c-3.02,1.27-6.18,1.9-9.47,1.9c-3.3,0-6.46-0.64-9.48-1.9
			c-2.92-1.24-5.51-2.98-7.76-5.21c-2.23-2.26-3.97-4.85-5.21-7.76c-1.27-3.02-1.9-6.18-1.9-9.48V420.4z"/>
		<path class="st1" d="M291.05,411.27v31.96c0,3.3-0.64,6.46-1.9,9.48c-1.24,2.91-2.98,5.51-5.21,7.76
			c-2.26,2.23-4.85,3.97-7.76,5.21c-3.02,1.27-6.18,1.9-9.48,1.9c-3.3,0-6.46-0.64-9.48-1.9c-2.92-1.24-5.5-2.98-7.76-5.21
			c-2.23-2.26-3.97-4.85-5.21-7.76c-1.27-3.02-1.9-6.18-1.9-9.48c0-3.29,0.64-6.45,1.9-9.47c1.24-2.91,2.98-5.51,5.21-7.76
			c2.26-2.23,4.84-3.97,7.76-5.21c3.02-1.27,6.18-1.9,9.48-1.9c3.58,0,6.98,0.75,10.2,2.25c3.09,1.42,5.78,3.43,8.07,6.01v-15.87
			H291.05z M266.7,461.5c2.48,0,4.86-0.48,7.12-1.45c2.18-0.91,4.11-2.22,5.78-3.92c1.7-1.67,3.01-3.6,3.92-5.78
			c0.96-2.26,1.44-4.63,1.44-7.12c0-2.48-0.48-4.85-1.44-7.12c-0.91-2.18-2.22-4.11-3.92-5.78c-1.68-1.7-3.6-3.01-5.78-3.92
			c-2.26-0.96-4.63-1.45-7.12-1.45c-2.49,0-4.86,0.49-7.12,1.45c-2.18,0.91-4.11,2.22-5.78,3.92c-1.7,1.68-3.01,3.6-3.92,5.78
			c-0.96,2.26-1.44,4.63-1.44,7.12c0,2.49,0.48,4.86,1.44,7.12c0.91,2.18,2.22,4.11,3.92,5.78c1.68,1.7,3.6,3.01,5.78,3.92
			C261.84,461.02,264.21,461.5,266.7,461.5z"/>
		<path class="st1" d="M354.13,411.27v31.96c0,3.3-0.64,6.46-1.9,9.48c-1.24,2.91-2.98,5.51-5.21,7.76
			c-2.26,2.23-4.85,3.97-7.76,5.21c-3.02,1.27-6.18,1.9-9.48,1.9c-3.3,0-6.46-0.64-9.48-1.9c-2.92-1.24-5.5-2.98-7.76-5.21
			c-2.23-2.26-3.97-4.85-5.21-7.76c-1.27-3.02-1.9-6.18-1.9-9.48c0-3.29,0.64-6.45,1.9-9.47c1.24-2.91,2.98-5.51,5.21-7.76
			c2.26-2.23,4.84-3.97,7.76-5.21c3.02-1.27,6.18-1.9,9.48-1.9c3.58,0,6.98,0.75,10.2,2.25c3.09,1.42,5.78,3.43,8.07,6.01v-15.87
			H354.13z M329.77,461.5c2.48,0,4.86-0.48,7.12-1.45c2.18-0.91,4.11-2.22,5.78-3.92c1.7-1.67,3.01-3.6,3.92-5.78
			c0.96-2.26,1.44-4.63,1.44-7.12c0-2.48-0.48-4.85-1.44-7.12c-0.91-2.18-2.22-4.11-3.92-5.78c-1.68-1.7-3.6-3.01-5.78-3.92
			c-2.26-0.96-4.63-1.45-7.12-1.45c-2.49,0-4.86,0.49-7.12,1.45c-2.18,0.91-4.11,2.22-5.78,3.92c-1.7,1.68-3.01,3.6-3.92,5.78
			c-0.96,2.26-1.44,4.63-1.44,7.12c0,2.49,0.48,4.86,1.44,7.12c0.91,2.18,2.22,4.11,3.92,5.78c1.68,1.7,3.6,3.01,5.78,3.92
			C324.92,461.02,327.29,461.5,329.77,461.5z"/>
		<path class="st1" d="M375.76,413.97c-0.76,0.74-1.66,1.1-2.7,1.1s-1.94-0.36-2.7-1.1c-0.73-0.73-1.1-1.63-1.1-2.7
			c0-1.04,0.37-1.93,1.1-2.66c0.76-0.76,1.66-1.14,2.7-1.14s1.94,0.38,2.7,1.14c0.73,0.73,1.1,1.62,1.1,2.66
			C376.87,412.34,376.5,413.24,375.76,413.97z M370.02,420.4h6.09v45.66h-6.09V420.4z"/>
		<path class="st1" d="M440.7,466.07h-6.09v-22.83c0-2.48-0.48-4.85-1.44-7.12c-0.91-2.18-2.22-4.11-3.92-5.78
			c-1.68-1.7-3.6-3.01-5.78-3.92c-2.26-0.96-4.63-1.45-7.12-1.45c-2.49,0-4.86,0.49-7.12,1.45c-2.18,0.91-4.11,2.22-5.78,3.92
			c-1.7,1.68-3.01,3.6-3.92,5.78c-0.97,2.26-1.45,4.63-1.45,7.12v22.83h-6.09v-22.83c0-3.29,0.63-6.45,1.9-9.47
			c1.24-2.91,2.98-5.51,5.21-7.76c2.26-2.23,4.85-3.97,7.76-5.21c3.02-1.27,6.18-1.9,9.48-1.9c3.3,0,6.45,0.64,9.47,1.9
			c2.92,1.24,5.51,2.98,7.76,5.21c2.23,2.26,3.97,4.85,5.21,7.76c1.27,3.02,1.9,6.18,1.9,9.47V466.07z"/>
		<path class="st1" d="M479.42,418.88c3.3,0,6.45,0.64,9.48,1.9c2.91,1.24,5.5,2.98,7.76,5.21c2.23,2.26,3.97,4.85,5.21,7.76
			c1.27,3.02,1.9,6.18,1.9,9.47v22.83c0,4.36-1.09,8.42-3.27,12.18l-5.25-3.04c1.62-2.82,2.43-5.86,2.43-9.13v-6.74
			c-0.28,0.33-0.58,0.66-0.91,0.99c-1.98,2-4.23,3.61-6.74,4.83c-2.59,1.27-5.32,2.04-8.18,2.32c-0.81,0.08-1.62,0.12-2.44,0.12
			c-3.32,0-6.51-0.65-9.55-1.94c-2.94-1.27-5.54-3.04-7.8-5.32c-1.68-1.68-3.06-3.57-4.15-5.67c-1.9-3.55-2.85-7.35-2.85-11.42
			c0-3.29,0.64-6.45,1.9-9.47c1.24-2.91,2.98-5.51,5.21-7.76c2.26-2.23,4.84-3.97,7.76-5.21
			C472.97,419.52,476.13,418.88,479.42,418.88z M496.78,448.98c0.61-1.85,0.91-3.77,0.91-5.75c0-2.48-0.48-4.85-1.44-7.12
			c-0.91-2.18-2.22-4.11-3.92-5.78c-1.68-1.7-3.6-3.01-5.78-3.92c-2.26-0.96-4.63-1.45-7.12-1.45c-2.49,0-4.86,0.49-7.12,1.45
			c-2.18,0.91-4.11,2.22-5.78,3.92c-1.7,1.68-3.01,3.6-3.92,5.78c-0.96,2.26-1.44,4.63-1.44,7.12c0,1.98,0.3,3.9,0.91,5.75
			c0.68,2.08,1.71,3.97,3.08,5.67c1.72,2.13,3.8,3.8,6.24,4.98c2.51,1.24,5.19,1.87,8.03,1.87c2.84,0,5.52-0.62,8.03-1.87
			c2.44-1.19,4.52-2.85,6.24-4.98C495.06,452.95,496.09,451.06,496.78,448.98z"/>
	</g>
</g>
<g>
	<g>
		<path class="st0" d="M309.89,220.78c2.38,0,4.33,1.93,4.33,4.33c0,2.4-1.95,4.33-4.33,4.33c-2.39,0-4.33-1.93-4.33-4.33
			C305.56,222.71,307.5,220.78,309.89,220.78z"/>
		<path class="st0" d="M338.48,155.39c2.4,0,4.33,1.94,4.33,4.33c0,2.39-1.93,4.32-4.33,4.32c-2.38,0-4.31-1.93-4.31-4.32
			C334.17,157.33,336.1,155.39,338.48,155.39z"/>
		<path class="st0" d="M338.48,207.29c2.4,0,4.33,1.95,4.33,4.33c0,2.38-1.93,4.33-4.33,4.33c-2.38,0-4.31-1.95-4.31-4.33
			C334.17,209.23,336.1,207.29,338.48,207.29z"/>
		<path class="st0" d="M348.1,181.82c2.4,0,4.33,1.93,4.33,4.32c0,2.39-1.93,4.33-4.33,4.33c-2.4,0-4.31-1.94-4.31-4.33
			S345.7,181.82,348.1,181.82z"/>
		<path class="st0" d="M317.3,150.42c0-3.39-2.72-6.31-6.11-6.31h-1.32c-3.39,0-6.05,2.91-6.05,6.31v36.25l-17.76,17.72
			c-2.62,2.62-2.49,6.87-0.01,9.48c2.49,2.64,6.84,2.64,9.46,0l19.62-19.62c0.15-0.16,0.27-0.33,0.42-0.48
			c1.08-1.12,1.74-2.63,1.74-4.3L317.3,150.42L317.3,150.42z"/>
		<path class="st0" d="M312.42,114.74c-12.65,0-25.04,3.43-35.84,9.91c-3.3,1.98-4.37,6.26-2.39,9.56c1.98,3.3,6.26,4.37,9.56,2.39
			c8.63-5.18,18.54-7.92,28.67-7.92c30.75,0,55.77,25.02,55.77,55.77s-25.02,55.77-55.77,55.77c-29.31,0-53.39-22.73-55.59-51.48
			l15.99,1.99l-17.44-40.98l-26.96,35.45l14.36,1.79c1.34,37.26,32.06,67.16,69.64,67.16c38.43,0,69.7-31.27,69.7-69.7
			S350.85,114.74,312.42,114.74z"/>
	</g>
	<g>
		<path class="st0" d="M445.09,99.93L445.09,99.93L328.18,41.19c-11.38-5.72-24.99-5.72-36.37,0L174.9,99.93
			c-13.89,6.98-22.65,21.57-22.31,37.16c1.16,52.69,16.4,180.68,132.48,231.1c7.9,3.44,16.41,5.17,24.91,5.17
			c8.5,0,17-1.72,24.91-5.17c116.09-50.43,131.33-178.42,132.48-231.11C467.74,121.5,458.98,106.91,445.09,99.93z M391.36,217.64
			c-6.97,31.91-22.33,61.49-44.44,85.55c-10.05,11.06-21.45,20.84-33.93,29.07c-18.77-12.58-35.45-27.9-49.59-45.54
			c-19.4-24.25-31.92-51.11-36.22-77.68c-4.19-26.06-0.07-49.82,11.92-68.71c4.94-7.77,11.11-14.6,18.33-20.31
			c17.57-13.9,37.01-21.23,56.25-21.23c0.19,0,0.39,0,0.58,0c19.19,0.18,37.49,7.72,52.95,21.83c5.48,5,10.21,10.75,14.06,17.09
			C394.03,158.83,397.61,187.22,391.36,217.64z M326.82,349.56L326.82,349.56c-2.84,1.23-5.78,2.11-8.76,2.69
			c0.15-0.1,0.32-0.18,0.47-0.29c14.03-8.61,26.91-18.92,38.38-30.7v0.2l4.55-4.96c24.44-26.67,41.42-59.46,49.12-94.83
			c7.28-35.3,2.83-68.7-12.53-94.05c-4.81-7.96-10.74-15.17-17.61-21.44c-19.02-17.45-41.84-26.78-65.99-26.99
			c-24.11-0.07-48.07,8.6-69.22,25.44c-8.95,7.07-16.59,15.54-22.72,25.15c-14.6,22.95-19.68,51.43-14.69,82.35
			c4.78,29.83,18.69,59.88,40.21,86.92c16.82,20.95,36.88,38.84,59.6,53.17c0.5,0.32,1.02,0.57,1.56,0.78
			c-5.46-0.11-10.91-1.23-16.01-3.45C187.87,303.82,174,185.43,172.91,136.66c-0.17-7.79,4.2-15.07,11.12-18.55l116.92-58.75
			c2.84-1.42,5.95-2.13,9.06-2.13s6.22,0.71,9.06,2.13l116.92,58.74c6.92,3.48,11.29,10.76,11.12,18.55
			C446.02,185.43,432.14,303.82,326.82,349.56z"/>
	</g>
</g>
</svg>
