<?xml version="1.0" encoding="utf-8"?>
<!-- Generator: Adobe Illustrator 25.0.1, SVG Export Plug-In . SVG Version: 6.00 Build 0)  -->
<svg version="1.1" id="Layer_1" xmlns="http://www.w3.org/2000/svg" xmlns:xlink="http://www.w3.org/1999/xlink" x="0px" y="0px"
	 viewBox="0 0 608.4 541.8" style="enable-background:new 0 0 608.4 541.8;" xml:space="preserve">
<style type="text/css">
	.st0{fill:#27AAE1;}
</style>
<g>
	<g>
		<path class="st0" d="M309.85,297.31c3.37,0,6.13,2.74,6.13,6.13c0,3.4-2.76,6.13-6.13,6.13c-3.38,0-6.13-2.73-6.13-6.13
			C303.72,300.04,306.47,297.31,309.85,297.31z"/>
		<path class="st0" d="M350.34,204.7c3.39,0,6.13,2.75,6.13,6.13s-2.74,6.12-6.13,6.12c-3.37,0-6.11-2.74-6.11-6.12
			C344.23,207.45,346.97,204.7,350.34,204.7z"/>
		<path class="st0" d="M350.34,278.2c3.39,0,6.13,2.76,6.13,6.13s-2.74,6.13-6.13,6.13c-3.37,0-6.11-2.76-6.11-6.13
			S346.97,278.2,350.34,278.2z"/>
		<path class="st0" d="M363.96,242.14c3.39,0,6.13,2.74,6.13,6.12c0,3.38-2.74,6.13-6.13,6.13c-3.4,0-6.11-2.75-6.11-6.13
			C357.85,244.88,360.56,242.14,363.96,242.14z"/>
		<path class="st0" d="M320.35,197.66c0-4.8-3.86-8.93-8.65-8.93h-1.87c-4.79,0-8.57,4.13-8.57,8.93V249l-25.15,25.1
			c-3.71,3.71-3.52,9.74-0.01,13.43c3.52,3.73,9.69,3.73,13.4,0l27.79-27.79c0.21-0.23,0.38-0.47,0.59-0.68
			c1.53-1.58,2.46-3.72,2.46-6.09L320.35,197.66L320.35,197.66z"/>
		<path class="st0" d="M313.43,147.13c-17.92,0-35.47,4.85-50.76,14.03c-4.67,2.8-6.18,8.86-3.38,13.54
			c2.8,4.67,8.87,6.19,13.54,3.38c12.22-7.34,26.26-11.22,40.6-11.22c43.55,0,78.98,35.43,78.98,78.98s-35.43,78.98-78.98,78.98
			c-41.5,0-75.61-32.18-78.72-72.9l22.65,2.82l-24.7-58.03l-38.18,50.2l20.34,2.53c1.9,52.77,45.4,95.11,98.62,95.11
			c54.43,0,98.71-44.28,98.71-98.71S367.86,147.13,313.43,147.13z"/>
	</g>
	<g>
		<path class="st0" d="M501.32,126.17L501.32,126.17L335.75,42.98c-16.12-8.11-35.39-8.11-51.51,0l-165.56,83.18
			c-19.67,9.88-32.08,30.54-31.6,52.63c1.65,74.61,23.22,255.87,187.62,327.28c11.19,4.88,23.23,7.32,35.28,7.32
			c12.04,0,24.08-2.43,35.28-7.32c164.4-71.42,185.99-252.67,187.62-327.3C533.4,156.71,520.98,136.05,501.32,126.17z
			 M425.23,292.86c-9.87,45.19-31.63,87.08-62.94,121.16c-14.23,15.67-30.38,29.51-48.05,41.17c-26.58-17.82-50.2-39.51-70.23-64.49
			c-27.47-34.34-45.21-72.39-51.29-110.02c-5.94-36.91-0.1-70.56,16.88-97.31c6.99-11,15.73-20.68,25.96-28.76
			c24.88-19.68,52.41-30.06,79.67-30.06c0.27,0,0.55,0,0.82,0c27.17,0.25,53.1,10.94,74.98,30.91c7.76,7.08,14.46,15.23,19.91,24.2
			C429.01,209.57,434.08,249.79,425.23,292.86z M333.83,479.69l-0.01,0c-4,1.74-8.17,2.99-12.4,3.81c0.22-0.14,0.46-0.25,0.66-0.41
			c19.87-12.2,38.12-26.8,54.36-43.48v0.28l6.44-7.02c34.62-37.77,58.66-84.2,69.56-134.3c10.31-49.99,4.01-97.29-17.75-133.19
			c-6.82-11.27-15.21-21.48-24.94-30.36c-26.94-24.71-59.25-37.93-93.45-38.22c-34.15-0.1-68.08,12.18-98.03,36.03
			c-12.67,10.02-23.5,22-32.18,35.62c-20.68,32.51-27.87,72.84-20.8,116.62c6.77,42.24,26.46,84.81,56.95,123.1
			c23.82,29.67,52.23,55.01,84.4,75.3c0.7,0.45,1.45,0.8,2.21,1.11c-7.73-0.15-15.45-1.75-22.67-4.88
			C137.04,414.9,117.4,247.24,115.86,178.18c-0.24-11.03,5.95-21.35,15.75-26.27l165.57-83.2c4.02-2.01,8.43-3.02,12.82-3.02
			s8.81,1.01,12.82,3.02l165.57,83.18c9.8,4.93,15.99,15.24,15.75,26.27C502.63,247.24,482.98,414.91,333.83,479.69z"/>
	</g>
</g>
</svg>
