<?xml version="1.0" encoding="utf-8"?>
<!-- Generator: Adobe Illustrator 25.0.1, SVG Export Plug-In . SVG Version: 6.00 Build 0)  -->
<svg version="1.1" id="Layer_1" xmlns="http://www.w3.org/2000/svg" xmlns:xlink="http://www.w3.org/1999/xlink" x="0px" y="0px"
	 viewBox="0 0 608.4 235.8" style="enable-background:new 0 0 608.4 235.8;" xml:space="preserve">
<style type="text/css">
	.st0{fill:#27AAE1;}
	.st1{fill:#FFFFFF;}
</style>
<g>
	<g>
		<path class="st0" d="M560.38,160.99H204.49c-1.1,0-2-0.9-2-2V85.25c0-1.1,0.9-2,2-2h355.89c1.1,0,2,0.9,2,2v73.74
			C562.38,160.09,561.48,160.99,560.38,160.99z"/>
		<g>
			<path class="st1" d="M243.72,103.18c2.7,0,5.28,0.52,7.76,1.56c2.39,1.02,4.51,2.44,6.36,4.27c1.83,1.85,3.25,3.97,4.27,6.36
				c1.04,2.47,1.56,5.06,1.56,7.76c0,2.7-0.52,5.29-1.56,7.76c-1.02,2.39-2.44,4.51-4.27,6.36c-1.85,1.83-3.97,3.25-6.36,4.27
				c-2.47,1.04-5.06,1.56-7.76,1.56c-2.93,0-5.71-0.61-8.35-1.84c-2.53-1.16-4.74-2.8-6.6-4.92v12.99h-4.98v-26.17
				c0-2.7,0.52-5.28,1.56-7.76c1.02-2.39,2.44-4.51,4.27-6.36c1.85-1.83,3.97-3.25,6.36-4.27
				C238.43,103.7,241.02,103.18,243.72,103.18z M243.72,138.07c2.03,0,3.98-0.39,5.82-1.18c1.79-0.75,3.36-1.82,4.74-3.21
				c1.39-1.37,2.46-2.95,3.21-4.73c0.79-1.85,1.18-3.79,1.18-5.83c0-2.03-0.4-3.97-1.18-5.82c-0.75-1.79-1.82-3.36-3.21-4.74
				c-1.37-1.39-2.95-2.46-4.74-3.21c-1.85-0.79-3.79-1.18-5.82-1.18c-2.04,0-3.98,0.4-5.83,1.18c-1.79,0.75-3.36,1.82-4.73,3.21
				c-1.39,1.37-2.46,2.95-3.21,4.74c-0.79,1.85-1.18,3.79-1.18,5.82c0,2.04,0.39,3.98,1.18,5.83c0.75,1.79,1.82,3.36,3.21,4.73
				c1.37,1.39,2.95,2.47,4.73,3.21C239.74,137.68,241.68,138.07,243.72,138.07z"/>
			<path class="st1" d="M275.42,104.43h4.98v18.69c0,2.04,0.39,3.98,1.18,5.83c0.75,1.79,1.82,3.36,3.21,4.73
				c1.37,1.39,2.95,2.47,4.73,3.21c1.85,0.79,3.79,1.18,5.83,1.18c2.03,0,3.98-0.39,5.82-1.18c1.79-0.75,3.36-1.82,4.74-3.21
				c1.39-1.37,2.46-2.95,3.21-4.73c0.79-1.85,1.18-3.79,1.18-5.83v-18.69h4.98v18.69c0,2.7-0.52,5.29-1.56,7.76
				c-1.02,2.39-2.44,4.51-4.27,6.36c-1.85,1.83-3.97,3.25-6.36,4.27c-2.47,1.04-5.06,1.56-7.76,1.56c-2.7,0-5.29-0.52-7.76-1.56
				c-2.39-1.02-4.51-2.44-6.36-4.27c-1.83-1.85-3.25-3.97-4.27-6.36c-1.04-2.47-1.56-5.06-1.56-7.76V104.43z"/>
			<path class="st1" d="M366.93,96.95v26.17c0,2.7-0.52,5.29-1.56,7.76c-1.02,2.39-2.44,4.51-4.27,6.36
				c-1.85,1.83-3.97,3.25-6.35,4.27c-2.47,1.04-5.06,1.56-7.76,1.56s-5.29-0.52-7.76-1.56c-2.39-1.02-4.51-2.44-6.35-4.27
				c-1.83-1.85-3.25-3.97-4.27-6.36c-1.04-2.47-1.56-5.06-1.56-7.76c0-2.7,0.52-5.28,1.56-7.76c1.02-2.39,2.44-4.51,4.27-6.36
				c1.85-1.83,3.96-3.25,6.35-4.27c2.47-1.04,5.06-1.56,7.76-1.56c2.93,0,5.71,0.61,8.35,1.84c2.53,1.16,4.74,2.8,6.6,4.92V96.95
				H366.93z M346.99,138.07c2.03,0,3.98-0.39,5.82-1.18c1.79-0.75,3.36-1.82,4.74-3.21c1.39-1.37,2.46-2.95,3.21-4.73
				c0.79-1.85,1.18-3.79,1.18-5.83c0-2.03-0.39-3.97-1.18-5.82c-0.75-1.79-1.82-3.36-3.21-4.74c-1.37-1.39-2.95-2.46-4.74-3.21
				c-1.85-0.79-3.79-1.18-5.82-1.18c-2.04,0-3.98,0.4-5.82,1.18c-1.79,0.75-3.36,1.82-4.74,3.21c-1.39,1.37-2.46,2.95-3.21,4.74
				c-0.79,1.85-1.18,3.79-1.18,5.82c0,2.04,0.39,3.98,1.18,5.83c0.75,1.79,1.82,3.36,3.21,4.73c1.37,1.39,2.95,2.47,4.74,3.21
				C343.02,137.68,344.96,138.07,346.99,138.07z"/>
			<path class="st1" d="M418.57,96.95v26.17c0,2.7-0.52,5.29-1.56,7.76c-1.02,2.39-2.44,4.51-4.27,6.36
				c-1.85,1.83-3.97,3.25-6.35,4.27c-2.47,1.04-5.06,1.56-7.76,1.56c-2.7,0-5.29-0.52-7.76-1.56c-2.39-1.02-4.51-2.44-6.35-4.27
				c-1.83-1.85-3.25-3.97-4.27-6.36c-1.04-2.47-1.56-5.06-1.56-7.76c0-2.7,0.52-5.28,1.56-7.76c1.02-2.39,2.44-4.51,4.27-6.36
				c1.85-1.83,3.96-3.25,6.35-4.27c2.47-1.04,5.06-1.56,7.76-1.56c2.93,0,5.71,0.61,8.35,1.84c2.53,1.16,4.74,2.8,6.6,4.92V96.95
				H418.57z M398.63,138.07c2.03,0,3.98-0.39,5.82-1.18c1.79-0.75,3.36-1.82,4.74-3.21c1.39-1.37,2.46-2.95,3.21-4.73
				c0.79-1.85,1.18-3.79,1.18-5.83c0-2.03-0.39-3.97-1.18-5.82c-0.75-1.79-1.82-3.36-3.21-4.74c-1.37-1.39-2.95-2.46-4.74-3.21
				c-1.85-0.79-3.79-1.18-5.82-1.18c-2.04,0-3.98,0.4-5.82,1.18c-1.79,0.75-3.36,1.82-4.74,3.21c-1.39,1.37-2.46,2.95-3.21,4.74
				c-0.79,1.85-1.18,3.79-1.18,5.82c0,2.04,0.39,3.98,1.18,5.83c0.75,1.79,1.82,3.36,3.21,4.73c1.37,1.39,2.95,2.47,4.74,3.21
				C394.65,137.68,396.59,138.07,398.63,138.07z"/>
			<path class="st1" d="M436.28,99.16c-0.62,0.6-1.36,0.9-2.21,0.9c-0.85,0-1.59-0.3-2.21-0.9c-0.6-0.6-0.9-1.34-0.9-2.21
				c0-0.85,0.3-1.58,0.9-2.18c0.62-0.62,1.36-0.94,2.21-0.94c0.85,0,1.59,0.31,2.21,0.94c0.6,0.6,0.9,1.33,0.9,2.18
				C437.18,97.83,436.88,98.56,436.28,99.16z M431.58,104.43h4.98v37.38h-4.98V104.43z"/>
			<path class="st1" d="M489.44,141.81h-4.98v-18.69c0-2.03-0.4-3.97-1.18-5.82c-0.75-1.79-1.82-3.36-3.21-4.74
				c-1.37-1.39-2.95-2.46-4.74-3.21c-1.85-0.79-3.79-1.18-5.82-1.18c-2.04,0-3.98,0.4-5.83,1.18c-1.79,0.75-3.36,1.82-4.73,3.21
				c-1.39,1.37-2.46,2.95-3.21,4.74c-0.79,1.85-1.18,3.79-1.18,5.82v18.69h-4.98v-18.69c0-2.7,0.52-5.28,1.56-7.76
				c1.02-2.39,2.44-4.51,4.27-6.36c1.85-1.83,3.97-3.25,6.36-4.27c2.47-1.04,5.06-1.56,7.76-1.56c2.7,0,5.28,0.52,7.76,1.56
				c2.39,1.02,4.51,2.44,6.36,4.27c1.83,1.85,3.25,3.97,4.27,6.36c1.04,2.47,1.56,5.06,1.56,7.76V141.81z"/>
			<path class="st1" d="M521.14,103.18c2.7,0,5.28,0.52,7.76,1.56c2.39,1.02,4.51,2.44,6.35,4.27c1.83,1.85,3.25,3.97,4.27,6.36
				c1.04,2.47,1.56,5.06,1.56,7.76v18.69c0,3.57-0.89,6.89-2.68,9.97l-4.3-2.49c1.33-2.31,1.99-4.8,1.99-7.48v-5.51
				c-0.23,0.27-0.48,0.54-0.75,0.81c-1.62,1.64-3.46,2.96-5.51,3.96c-2.12,1.04-4.35,1.67-6.7,1.9c-0.66,0.06-1.33,0.1-1.99,0.1
				c-2.72,0-5.33-0.53-7.82-1.59c-2.41-1.04-4.54-2.49-6.38-4.36c-1.37-1.37-2.5-2.92-3.4-4.64c-1.56-2.91-2.34-6.02-2.34-9.35
				c0-2.7,0.52-5.28,1.56-7.76c1.02-2.39,2.44-4.51,4.27-6.36c1.85-1.83,3.96-3.25,6.35-4.27
				C515.86,103.7,518.44,103.18,521.14,103.18z M535.35,127.83c0.5-1.52,0.75-3.09,0.75-4.71c0-2.03-0.39-3.97-1.18-5.82
				c-0.75-1.79-1.82-3.36-3.21-4.74c-1.37-1.39-2.95-2.46-4.74-3.21c-1.85-0.79-3.79-1.18-5.82-1.18c-2.04,0-3.98,0.4-5.82,1.18
				c-1.79,0.75-3.36,1.82-4.74,3.21c-1.39,1.37-2.46,2.95-3.21,4.74c-0.79,1.85-1.18,3.79-1.18,5.82c0,1.62,0.25,3.19,0.75,4.71
				c0.56,1.7,1.4,3.25,2.52,4.64c1.41,1.74,3.11,3.11,5.11,4.08c2.05,1.02,4.25,1.53,6.57,1.53s4.52-0.51,6.57-1.53
				c1.99-0.97,3.7-2.34,5.11-4.08C533.95,131.07,534.79,129.53,535.35,127.83z"/>
		</g>
	</g>
	<g>
		<g>
			<path class="st0" d="M104.64,126.64c1.17,0,2.13,0.95,2.13,2.13c0,1.18-0.96,2.13-2.13,2.13c-1.18,0-2.13-0.95-2.13-2.13
				C102.51,127.59,103.47,126.64,104.64,126.64z"/>
			<path class="st0" d="M118.74,94.41c1.18,0,2.13,0.96,2.13,2.13s-0.95,2.13-2.13,2.13c-1.17,0-2.13-0.95-2.13-2.13
				S117.56,94.41,118.74,94.41z"/>
			<path class="st0" d="M118.74,119.99c1.18,0,2.13,0.96,2.13,2.13c0,1.17-0.95,2.13-2.13,2.13c-1.17,0-2.13-0.96-2.13-2.13
				S117.56,119.99,118.74,119.99z"/>
			<path class="st0" d="M123.47,107.44c1.18,0,2.13,0.95,2.13,2.13s-0.95,2.13-2.13,2.13c-1.18,0-2.13-0.96-2.13-2.13
				S122.29,107.44,123.47,107.44z"/>
			<path class="st0" d="M108.3,91.96c0-1.67-1.34-3.11-3.01-3.11h-0.65c-1.67,0-2.98,1.44-2.98,3.11v17.87l-8.75,8.74
				c-1.29,1.29-1.23,3.39,0,4.67c1.23,1.3,3.37,1.3,4.66,0l9.67-9.67c0.07-0.08,0.13-0.16,0.21-0.24c0.53-0.55,0.86-1.3,0.86-2.12
				L108.3,91.96L108.3,91.96z"/>
			<path class="st0" d="M105.89,74.37c-6.24,0-12.34,1.69-17.66,4.88c-1.63,0.98-2.15,3.09-1.18,4.71c0.98,1.63,3.09,2.15,4.71,1.18
				c4.25-2.55,9.14-3.9,14.13-3.9c15.16,0,27.49,12.33,27.49,27.49s-12.33,27.49-27.49,27.49c-14.44,0-26.31-11.2-27.4-25.37
				l7.88,0.98l-8.6-20.2L64.49,109.1l7.08,0.88c0.66,18.36,15.8,33.1,34.32,33.1c18.94,0,34.35-15.41,34.35-34.35
				S124.83,74.37,105.89,74.37z"/>
		</g>
		<g>
			<path class="st0" d="M171.28,67.08L171.28,67.08l-57.62-28.95c-5.61-2.82-12.32-2.82-17.93,0L38.11,67.08
				c-6.84,3.44-11.16,10.63-11,18.32c0.57,25.97,8.08,89.05,65.3,113.9c3.9,1.7,8.09,2.55,12.28,2.55c4.19,0,8.38-0.85,12.28-2.55
				c57.22-24.85,64.73-87.94,65.3-113.91C182.44,77.71,178.12,70.52,171.28,67.08z M144.8,125.09
				c-3.43,15.73-11.01,30.31-21.91,42.17c-4.95,5.45-10.57,10.27-16.72,14.33c-9.25-6.2-17.47-13.75-24.44-22.45
				c-9.56-11.95-15.73-25.19-17.85-38.29c-2.07-12.85-0.04-24.56,5.87-33.87c2.43-3.83,5.47-7.2,9.03-10.01
				c8.66-6.85,18.24-10.46,27.73-10.46c0.09,0,0.19,0,0.28,0c9.46,0.09,18.48,3.81,26.1,10.76c2.7,2.46,5.03,5.3,6.93,8.42
				C146.12,96.11,147.88,110.1,144.8,125.09z M112.99,190.11L112.99,190.11c-1.4,0.61-2.85,1.04-4.32,1.33
				c0.08-0.05,0.16-0.09,0.23-0.14c6.91-4.25,13.27-9.33,18.92-15.13v0.1l2.24-2.44c12.05-13.15,20.42-29.3,24.21-46.74
				c3.59-17.4,1.39-33.86-6.18-46.36c-2.37-3.92-5.29-7.48-8.68-10.57c-9.38-8.6-20.62-13.2-32.52-13.3
				C95,56.82,83.19,61.09,72.77,69.39c-4.41,3.49-8.18,7.66-11.2,12.4c-7.2,11.31-9.7,25.35-7.24,40.59
				c2.36,14.7,9.21,29.51,19.82,42.84c8.29,10.33,18.18,19.15,29.37,26.21c0.25,0.16,0.5,0.28,0.77,0.39
				c-2.69-0.05-5.38-0.61-7.89-1.7c-51.9-22.55-58.74-80.9-59.27-104.93c-0.08-3.84,2.07-7.43,5.48-9.14l57.62-28.96
				c1.4-0.7,2.93-1.05,4.46-1.05c1.53,0,3.07,0.35,4.46,1.05l57.62,28.95c3.41,1.71,5.57,5.3,5.48,9.14
				C171.74,109.22,164.9,167.57,112.99,190.11z"/>
		</g>
	</g>
</g>
</svg>
